<svg width="38" height="30" viewBox="0 0 38 30" fill="none" xmlns="http://www.w3.org/2000/svg">
<path d="M30.6814 28.7994C30.1894 28.7973 29.7179 28.602 29.3686 28.2556C29.0193 27.9042 28.8232 27.429 28.8232 26.9336C28.8232 26.4382 29.0193 25.9629 29.3686 25.6116C30.7635 24.2183 31.8701 22.5639 32.6251 20.7427C33.3802 18.9216 33.7688 16.9695 33.7688 14.998C33.7688 13.0266 33.3802 11.0745 32.6251 9.25339C31.8701 7.43225 30.7635 5.77776 29.3686 4.38453C29.0614 4.02581 28.9008 3.56437 28.919 3.09243C28.9373 2.62049 29.1329 2.17282 29.4669 1.83886C29.8009 1.5049 30.2486 1.30925 30.7206 1.29103C31.1926 1.2728 31.6541 1.43332 32.0129 1.74053C35.5287 5.25701 37.5037 10.0257 37.5037 14.998C37.5037 19.9704 35.5287 24.7391 32.0129 28.2556C31.8376 28.4294 31.6298 28.5669 31.4013 28.6602C31.1728 28.7535 30.9282 28.8008 30.6814 28.7994Z" fill="#231F20"/>
<path d="M25.3923 23.5114C25.1442 23.5103 24.8988 23.4601 24.6702 23.3635C24.4417 23.2669 24.2346 23.126 24.0609 22.9488C23.7117 22.5975 23.5156 22.1222 23.5156 21.6268C23.5156 21.1314 23.7117 20.6561 24.0609 20.3048C24.7583 19.6082 25.3115 18.7809 25.689 17.8704C26.0665 16.9598 26.2608 15.9837 26.2608 14.998C26.2608 14.0123 26.0665 13.0363 25.689 12.1257C25.3115 11.2151 24.7583 10.3879 24.0609 9.69128C23.7537 9.33255 23.5932 8.87112 23.6114 8.39918C23.6296 7.92724 23.8253 7.47956 24.1592 7.1456C24.4932 6.81164 24.9409 6.616 25.4128 6.59777C25.8848 6.57954 26.3462 6.74007 26.7049 7.04728C28.8119 9.15686 29.9953 12.0165 29.9953 14.998C29.9953 17.9796 28.8119 20.8392 26.7049 22.9488C26.3587 23.3021 25.8869 23.5043 25.3923 23.5114Z" fill="#231F20"/>
<path d="M17.591 0.146613C17.2495 0.00301288 16.8731 -0.0362204 16.5093 0.0338628C16.1455 0.103946 15.8106 0.280205 15.5469 0.540401L8.60798 7.49732H3.75075C2.75599 7.49732 1.80197 7.89245 1.09857 8.59577C0.395167 9.2991 0 10.253 0 11.2477V18.7484C0 19.7431 0.395167 20.697 1.09857 21.4003C1.80197 22.1036 2.75599 22.4988 3.75075 22.4988H8.60798L15.5469 29.4557C15.7221 29.6295 15.9299 29.767 16.1584 29.8603C16.3869 29.9536 16.6316 30.0009 16.8784 29.9995C17.1244 30.0058 17.3685 29.9544 17.591 29.8495C17.9335 29.7088 18.2267 29.4699 18.4336 29.1629C18.6405 28.8559 18.7519 28.4945 18.7538 28.1243V1.87178C18.7519 1.50157 18.6405 1.14019 18.4336 0.833188C18.2267 0.526183 17.9335 0.287289 17.591 0.146613Z" fill="#231F20"/>
</svg>
