<svg width="64" height="64" viewBox="0 0 64 64" fill="none" xmlns="http://www.w3.org/2000/svg">
<path d="M2 32C2 17.8579 2 10.7868 6.39341 6.39341C10.7868 2 17.8579 2 32 2C46.142 2 53.2133 2 57.6065 6.39341C62 10.7868 62 17.8579 62 32C62 46.142 62 53.2133 57.6065 57.6065C53.2133 62 46.142 62 32 62C17.8579 62 10.7868 62 6.39341 57.6065C2 53.2133 2 46.142 2 32Z" stroke="#2A2A2A" stroke-width="3.75"/>
<path d="M26.375 22.625C26.375 19.5184 28.8935 17 32 17C35.1065 17 37.625 19.5184 37.625 22.625C37.625 24.6873 36.515 26.4905 34.8602 27.4697C33.434 28.3133 32 29.5931 32 31.25V35" stroke="#2A2A2A" stroke-width="3.75" stroke-linecap="round"/>
<path d="M32 47C33.6569 47 35 45.6569 35 44C35 42.3431 33.6569 41 32 41C30.3431 41 29 42.3431 29 44C29 45.6569 30.3431 47 32 47Z" fill="#2A2A2A"/>
</svg>
