<svg width="39" height="30" viewBox="0 0 39 30" fill="none" xmlns="http://www.w3.org/2000/svg">
<path d="M37.1928 1.93176C36.3698 1.93176 35.7037 2.60262 35.7037 3.42868C35.7037 3.59672 35.7318 3.75706 35.7816 3.90713C33.6533 4.74346 34.0794 8.79939 34.3831 12.6116C33.1901 13.6891 31.8248 13.5505 30.6178 11.9574C30.4672 7.97076 29.4579 2.7668 31.3565 1.21729C31.3399 1.30836 31.3297 1.40072 31.3297 1.49692C31.3297 2.32427 31.9971 2.99384 32.8188 2.99384C33.6405 2.99384 34.3078 2.32299 34.3078 1.49692C34.3078 0.669574 33.6405 0 32.8188 0C32.2484 0 31.7521 0.323242 31.502 0.796562C28.5545 1.26475 29.4694 6.6098 29.7463 11.0082C29.6059 13.3273 29.0598 15.4259 28.2343 17.2114C27.595 12.4551 24.8172 8.14649 22.2462 5.97742C17.2674 1.77783 10.2828 2.18061 5.42903 6.52771C0.575282 10.8748 0.355816 18.8648 4.65325 23.7032C5.33078 24.3817 6.10912 24.9102 6.94998 25.2937C3.85833 26.5752 1.48759 28.2863 0.5 30H26.1111C33.911 30 36.8036 22.205 35.2597 13.3504C34.9968 9.75885 34.4635 5.74269 35.9832 4.30221C36.2537 4.67932 36.6939 4.9256 37.1928 4.9256C38.0158 4.9256 38.6818 4.25475 38.6818 3.42868C38.6818 2.60262 38.0145 1.93176 37.1928 1.93176Z" fill="#2A2A2A"/>
<path fill-rule="evenodd" clip-rule="evenodd" d="M13.6437 9.86169C14.3252 8.95353 15.7712 9.43525 15.7712 10.5704V21.2734C15.7712 22.4148 14.3123 22.8924 13.6365 21.9724L11.3351 18.8392H9.86152C8.88238 18.8392 8.08862 18.0459 8.08862 17.0673V14.7048C8.08862 13.7262 8.88238 12.9329 9.86152 12.9329H11.3389L13.6437 9.86169ZM14.5892 10.5704L12.2845 13.6417C12.0613 13.9391 11.7109 14.1142 11.3389 14.1142H9.86152C9.53514 14.1142 9.27055 14.3786 9.27055 14.7048V17.0673C9.27055 17.3935 9.53514 17.6579 9.86152 17.6579H11.3351C11.7114 17.6579 12.0652 17.837 12.2879 18.1402L14.5892 21.2734V10.5704Z" fill="white"/>
<path d="M17.0792 11.2641C17.0175 10.9039 17.2941 10.5704 17.6597 10.5704C17.936 10.5704 18.1731 10.7642 18.2213 11.036C18.3855 11.9605 18.7258 14.0933 18.7258 15.8861C18.7258 17.6788 18.3855 19.8116 18.2213 20.7361C18.1731 21.0079 17.936 21.2017 17.6597 21.2017C17.2941 21.2017 17.0175 20.8683 17.0792 20.508C17.2527 19.4932 17.5439 17.5442 17.5439 15.8861C17.5439 14.228 17.2527 12.2789 17.0792 11.2641Z" fill="white"/>
<path d="M20.1505 11.7517C19.7513 11.7517 19.4592 12.1616 19.5516 12.5496C19.7166 13.2425 19.9082 14.3728 19.9082 15.8861C19.9082 17.3993 19.7166 18.5296 19.5516 19.2225C19.4592 19.6105 19.7513 20.0204 20.1505 20.0204C20.3642 20.0204 20.5567 19.899 20.6233 19.6961C20.7966 19.1681 21.0901 17.967 21.0901 15.8861C21.0901 13.8051 20.7966 12.604 20.6233 12.076C20.5567 11.8731 20.3642 11.7517 20.1505 11.7517Z" fill="white"/>
</svg>
