<svg width="69" height="60" viewBox="0 0 69 60" fill="none" xmlns="http://www.w3.org/2000/svg">
<path d="M12 2.47397V57.4511C12 60.8496 18 60.8496 18 57.4511V2.47397C18 -0.824656 12 -0.824656 12 2.47397Z" fill="#2A2A2A"/>
<path d="M4.6 25.9584H25.4C27.9 25.9584 30 23.6593 30 20.9604C30 18.2616 27.9 15.9625 25.4 15.9625H4.6C2.1 15.9625 0 18.2616 0 20.9604C0 23.6593 2.1 25.9584 4.6 25.9584Z" fill="#6D7275"/>
<path d="M4.8999 24.5594H25.0999C27.4999 24.5594 29.5999 22.8601 29.5999 20.7609C29.5999 18.6618 27.5999 16.9625 25.0999 16.9625H4.8999C2.4999 16.9625 0.399902 18.6618 0.399902 20.7609C0.399902 22.8601 2.3999 24.5594 4.8999 24.5594Z" fill="#94989B"/>
<path d="M64.2273 9.7294H38.7727C32.4091 9.7294 32.4091 0 38.7727 0H64.2273C70.5909 0 70.5909 9.7294 64.2273 9.7294Z" fill="#AEAEAE"/>
<path d="M61.0454 26.3197H38.7727C32.4091 26.3197 32.4091 16.2157 38.7727 16.2157H61.0454C67.4091 16.2157 67.4091 26.3197 61.0454 26.3197Z" fill="#10C62D"/>
<path d="M57.8636 43.1599H38.7727C32.4091 43.1599 32.4091 33.0558 38.7727 33.0558H57.8636C64.2273 33.0558 64.2273 43.1599 57.8636 43.1599Z" fill="#10C62D"/>
<path d="M54.6818 60H38.7727C32.4091 60 32.4091 49.8959 38.7727 49.8959H54.6818C61.0454 49.8959 61.0454 60 54.6818 60Z" fill="#10C62D"/>
</svg>
