<svg width="380" height="297" viewBox="0 0 380 297" fill="none" xmlns="http://www.w3.org/2000/svg">
<path d="M379.952 242.526H0V296.449H379.952V242.526Z" fill="black"/>
<g opacity="0.2">
<path d="M380 242.526H53.9651V268.942H380V242.526Z" fill="white"/>
</g>
<path d="M53.9649 242.526H0V296.449H53.9649V242.526Z" fill="black"/>
<path d="M379.952 0.129578H0.029541V242.543H379.952V0.129578Z" fill="#E21B1B"/>
<path d="M41.142 270.015L19.437 257.492V282.539L41.142 270.015Z" fill="white"/>
<path d="M313.467 265.982H79.915V271.914H313.467V265.982Z" fill="#999999"/>
<path d="M149.072 278.481C153.898 278.481 157.811 274.571 157.811 269.748C157.811 264.926 153.898 261.016 149.072 261.016C144.246 261.016 140.333 264.926 140.333 269.748C140.333 274.571 144.246 278.481 149.072 278.481Z" fill="#E21B1B"/>
<path d="M342.29 257.054H336.353V280.783H342.29V257.054Z" fill="#999999"/>
<path d="M357.095 257.054H351.159V280.783H357.095V257.054Z" fill="#999999"/>
<path d="M219.945 122.244L170.771 93.8764V150.612L219.945 122.244Z" fill="white"/>
<path d="M189.976 187.979C152.96 187.985 122.95 157.997 122.944 121.01C122.938 84.0229 152.949 54.0354 189.964 54.0295C226.98 54.0235 256.99 84.011 256.996 120.998C256.996 121.004 256.996 121.004 256.996 121.01C256.961 157.98 226.974 187.943 189.976 187.979ZM189.976 59.9673C156.238 59.9614 128.887 87.291 128.881 121.004C128.875 154.717 156.225 182.047 189.964 182.053C223.703 182.059 251.054 154.729 251.06 121.016V121.01C251.024 87.3148 223.696 60.0029 189.976 59.9673Z" fill="white"/>
</svg>
